<svg width="20" height="20" viewBox="0 0 20 20" fill="none" xmlns="http://www.w3.org/2000/svg">
<g clip-path="url(#clip0_877_1636)">
<path d="M3.5825 18.5625C3.485 19.1175 4.0325 19.5512 4.515 19.3037L10.0025 16.4837L15.4888 19.3037C15.9713 19.5512 16.5188 19.1175 16.4213 18.5637L15.3838 12.6512L19.7863 8.45625C20.1988 8.06375 19.9863 7.34625 19.4338 7.26875L13.3113 6.39875L10.5813 0.989995C10.5292 0.880356 10.4472 0.787724 10.3446 0.722861C10.2421 0.657998 10.1232 0.623566 10.0019 0.623566C9.88053 0.623566 9.76167 0.657998 9.65912 0.722861C9.55656 0.787724 9.47451 0.880356 9.4225 0.989995L6.6925 6.4L0.570003 7.27C0.0187529 7.3475 -0.194997 8.065 0.216253 8.4575L4.62 12.6525L3.5825 18.565V18.5625ZM9.71375 15.1037L5.10625 17.4712L5.97375 12.525C5.99408 12.4111 5.98612 12.294 5.9506 12.184C5.91507 12.0739 5.85306 11.9742 5.77 11.8937L2.1375 8.43125L7.2025 7.71125C7.30738 7.69541 7.40686 7.65438 7.49242 7.59169C7.57798 7.52899 7.64706 7.44649 7.69375 7.35125L10 2.77875L12.3088 7.35125C12.3554 7.44649 12.4245 7.52899 12.5101 7.59169C12.5956 7.65438 12.6951 7.69541 12.8 7.71125L17.865 8.43L14.2325 11.8925C14.1493 11.9731 14.0871 12.073 14.0516 12.1833C14.0161 12.2936 14.0082 12.4109 14.0288 12.525L14.8963 17.4712L10.2888 15.1037C10.1997 15.0578 10.1009 15.0338 10.0006 15.0338C9.90039 15.0338 9.8016 15.0578 9.7125 15.1037H9.71375Z" fill="#FC1B15"/>
</g>
<defs>
<clipPath id="clip0_877_1636">
<rect width="20" height="20" fill="white"/>
</clipPath>
</defs>
</svg>
